<svg xmlns="http://www.w3.org/2000/svg" width="1120" height="1320" viewBox="0 0 1120 1320" role="img" aria-labelledby="title desc">
<title id="title">移动管理平台 · 整体架构</title><desc id="desc">f03a618 + 当前工作区变更  ·  逻辑分层与模块关系  ·  2026-09-08</desc>
<defs><marker id="arrow" viewBox="0 0 10 10" refX="9" refY="5" markerWidth="7" markerHeight="7" orient="auto-start-reverse"><path d="M 0 0 L 10 5 L 0 10 z" fill="#8c9caf"/></marker></defs>
<rect width="1120" height="100%" fill="white"/>
<g font-family="PingFang SC, Microsoft YaHei, sans-serif">
<text x="40" y="48" font-size="30" text-anchor="start" fill="#172c47" font-weight="600">移动管理平台 · 整体架构</text>
<text x="40" y="80" font-size="17" text-anchor="start" fill="#526780" font-weight="400">f03a618 + 当前工作区变更  ·  逻辑分层与模块关系  ·  2026-09-08</text>
<rect x="240" y="110" width="640" height="78" rx="8" fill="#edf4ff" stroke="#95afd0" stroke-width="1.4" />
<text x="560.0" y="144.0" font-size="21" text-anchor="middle" fill="#172c47" font-weight="600">用户工作台 · React / Ant Design</text>
<text x="560.0" y="173.0" font-size="18" text-anchor="middle" fill="#172c47" font-weight="400">首页 AI、应用接入、研发交付、质量诊断与管理</text>
<polyline points="560,188 560,232" fill="none" stroke="#8c9caf" stroke-width="1.7" marker-end="url(#arrow)" />
<text x="590" y="215" font-size="16" text-anchor="start" fill="#526780" font-weight="400">HTTP / SSE / WebSocket / 画面流</text>
<rect x="40" y="232" width="1040" height="696" rx="12" fill="#edf4ff" fill-opacity="0.38" stroke="#95afd0" stroke-width="1.5"/>
<text x="58" y="262" font-size="20" text-anchor="start" fill="#172c47" font-weight="600">平台后端 · 一个 Node.js / Express 进程</text>
<rect x="75" y="284" width="970" height="84" rx="8" fill="#edf4ff" stroke="#95afd0" stroke-width="1.4" />
<text x="560.0" y="321.0" font-size="21" text-anchor="middle" fill="#172c47" font-weight="600">请求接入与应用上下文</text>
<text x="560.0" y="350.0" font-size="18" text-anchor="middle" fill="#172c47" font-weight="400">会话 / 路由权限  ·  产品线与应用  ·  系统限制与服务选配</text>
<polyline points="345,368 345,406" fill="none" stroke="#8c9caf" stroke-width="1.7" marker-end="url(#arrow)" />
<polyline points="775,368 775,406" fill="none" stroke="#8c9caf" stroke-width="1.7" marker-end="url(#arrow)" />
<rect x="75" y="406" width="550" height="90" rx="8" fill="#edf4ff" stroke="#95afd0" stroke-width="1.4" />
<text x="350.0" y="446.0" font-size="21" text-anchor="middle" fill="#172c47" font-weight="600">AI 执行入口</text>
<text x="350.0" y="475.0" font-size="18" text-anchor="middle" fill="#172c47" font-weight="400">意图识别 / 模型理解 → 工具白名单 → 确认与审计</text>
<rect x="655" y="406" width="390" height="90" rx="8" fill="#edf4ff" stroke="#95afd0" stroke-width="1.4" />
<text x="850.0" y="446.0" font-size="21" text-anchor="middle" fill="#172c47" font-weight="600">页面与标准 API 入口</text>
<text x="850.0" y="475.0" font-size="18" text-anchor="middle" fill="#172c47" font-weight="400">参数校验 → 对应业务操作</text>
<polyline points="345,496 345,522" fill="none" stroke="#8c9caf" stroke-width="1.7" marker-end="url(#arrow)" />
<polyline points="850,496 850,522" fill="none" stroke="#8c9caf" stroke-width="1.7" marker-end="url(#arrow)" />
<path d="M231 522 L887 522" stroke="#8c9caf" stroke-width="1.7" fill="none"/>
<polyline points="231,522 231,549" fill="none" stroke="#8c9caf" stroke-width="1.7" marker-end="url(#arrow)" />
<polyline points="559,522 559,549" fill="none" stroke="#8c9caf" stroke-width="1.7" marker-end="url(#arrow)" />
<polyline points="887,522 887,549" fill="none" stroke="#8c9caf" stroke-width="1.7" marker-end="url(#arrow)" />
<rect x="75" y="549" width="312" height="123" rx="8" fill="#edf4ff" stroke="#95afd0" stroke-width="1.4" />
<text x="231.0" y="592.0" font-size="21" text-anchor="middle" fill="#172c47" font-weight="600">研发交付</text>
<text x="231.0" y="621.0" font-size="18" text-anchor="middle" fill="#172c47" font-weight="400">应用 / Podx / Git</text>
<text x="231.0" y="648.0" font-size="18" text-anchor="middle" fill="#172c47" font-weight="400">Jenkins 构建 / Apple 发布</text>
<rect x="403" y="549" width="312" height="123" rx="8" fill="#edf4ff" stroke="#95afd0" stroke-width="1.4" />
<text x="559.0" y="592.0" font-size="21" text-anchor="middle" fill="#172c47" font-weight="600">质量执行</text>
<text x="559.0" y="621.0" font-size="18" text-anchor="middle" fill="#172c47" font-weight="400">iOS 质检 / Android Smoke</text>
<text x="559.0" y="648.0" font-size="18" text-anchor="middle" fill="#172c47" font-weight="400">WDA 录制 / DSL 回放</text>
<rect x="731" y="549" width="314" height="123" rx="8" fill="#edf4ff" stroke="#95afd0" stroke-width="1.4" />
<text x="888.0" y="592.0" font-size="21" text-anchor="middle" fill="#172c47" font-weight="600">故障诊断</text>
<text x="888.0" y="621.0" font-size="18" text-anchor="middle" fill="#172c47" font-weight="400">dSYM / Crash / Sentry</text>
<text x="888.0" y="648.0" font-size="18" text-anchor="middle" fill="#172c47" font-weight="400">反馈日志 / 水印解码</text>
<polyline points="231,672 231,713" fill="none" stroke="#8c9caf" stroke-width="1.7" marker-end="url(#arrow)" />
<polyline points="559,672 559,713" fill="none" stroke="#8c9caf" stroke-width="1.7" marker-end="url(#arrow)" />
<polyline points="887,672 887,713" fill="none" stroke="#8c9caf" stroke-width="1.7" marker-end="url(#arrow)" />
<rect x="75" y="713" width="970" height="102" rx="8" fill="#edf7f0" stroke="#96b9a2" stroke-width="1.4" />
<text x="560.0" y="745.5" font-size="21" text-anchor="middle" fill="#172c47" font-weight="600">Workflow · 统一交付证据</text>
<text x="560.0" y="774.5" font-size="18" text-anchor="middle" fill="#172c47" font-weight="400">Artifact / Task / Issue / Relation / Event</text>
<text x="560.0" y="801.5" font-size="18" text-anchor="middle" fill="#172c47" font-weight="400">变更影响  ·  门禁与交付诊断  ·  回归候选  ·  知识与版本观察</text>
<rect x="75" y="839" width="970" height="65" rx="8" fill="#f4f0fb" stroke="#b4a5ce" stroke-width="1.4" />
<text x="560.0" y="880.0" font-size="21" text-anchor="middle" fill="#172c47" font-weight="600">公共运行能力：定时同步 · 健康检查 · 备份 · 保留策略 · 文件清理</text>
<polyline points="310,928 310,978" fill="none" stroke="#8c9caf" stroke-width="1.7" marker-end="url(#arrow)" />
<text x="331" y="958" font-size="16" text-anchor="start" fill="#526780" font-weight="400">业务记录与证据读写</text>
<polyline points="810,928 810,978" fill="none" stroke="#8c9caf" stroke-width="1.7" marker-end="url(#arrow)" />
<text x="831" y="958" font-size="16" text-anchor="start" fill="#526780" font-weight="400">调用与状态同步</text>
<rect x="40" y="978" width="520" height="258" rx="12" fill="#edf7f0" fill-opacity="0.38" stroke="#96b9a2" stroke-width="1.5"/>
<text x="58" y="1008" font-size="20" text-anchor="start" fill="#172c47" font-weight="600">平台数据与状态</text>
<rect x="65" y="1025" width="225" height="110" rx="8" fill="#edf7f0" stroke="#96b9a2" stroke-width="1.4" />
<text x="177.5" y="1061.5" font-size="21" text-anchor="middle" fill="#172c47" font-weight="600">SQLite · WAL</text>
<text x="177.5" y="1090.5" font-size="18" text-anchor="middle" fill="#172c47" font-weight="400">用户 / 配置 / 证据</text>
<text x="177.5" y="1117.5" font-size="18" text-anchor="middle" fill="#172c47" font-weight="400">草稿 / 会话 / 审计</text>
<rect x="308" y="1025" width="226" height="110" rx="8" fill="#edf7f0" stroke="#96b9a2" stroke-width="1.4" />
<text x="421.0" y="1061.5" font-size="21" text-anchor="middle" fill="#172c47" font-weight="600">本地文件</text>
<text x="421.0" y="1090.5" font-size="18" text-anchor="middle" fill="#172c47" font-weight="400">dSYM / 日志 / 缓存</text>
<text x="421.0" y="1117.5" font-size="18" text-anchor="middle" fill="#172c47" font-weight="400">截图 / XML / 运行记录</text>
<text x="65" y="1172" font-size="17" text-anchor="start" fill="#172c47" font-weight="400">进程内状态：AI 待确认、附件索引、活动任务</text>
<text x="65" y="1203" font-size="17" text-anchor="start" fill="#172c47" font-weight="400">逻辑隔离：产品线 / 应用 / projectId / 组件库</text>
<rect x="584" y="978" width="496" height="258" rx="12" fill="#fff6e7" fill-opacity="0.38" stroke="#cdb587" stroke-width="1.5"/>
<text x="602" y="1008" font-size="20" text-anchor="start" fill="#172c47" font-weight="600">外部执行与服务</text>
<text x="609" y="1046" font-size="18" text-anchor="start" fill="#172c47" font-weight="400">执行：Jenkins、WDA / 真机</text>
<text x="609" y="1084" font-size="18" text-anchor="start" fill="#172c47" font-weight="400">研发：Git、Nexus / Specs、Apple</text>
<text x="609" y="1122" font-size="18" text-anchor="start" fill="#172c47" font-weight="400">诊断：Sentry、OP / 日志源</text>
<text x="609" y="1160" font-size="18" text-anchor="start" fill="#172c47" font-weight="400">集成：模型 API、企业微信</text>
<text x="609" y="1203" font-size="17" text-anchor="start" fill="#526780" font-weight="400">具体部署与调用方向见部署拓扑图</text>
<text x="40" y="1296" font-size="16" text-anchor="start" fill="#526780" font-weight="400">说明：框内为逻辑模块；各模块可直接访问所需存储，Workflow 是证据汇总层，不是唯一数据访问层。</text>
</g></svg>